<svg width="1024" height="1024" viewBox="0 0 1024 1024" xmlns="http://www.w3.org/2000/svg">
  <!-- Background gradient -->
  <defs>
    <linearGradient id="bgGradient" x1="0%" y1="0%" x2="100%" y2="100%">
      <stop offset="0%" style="stop-color:#1976D2;stop-opacity:1" />
      <stop offset="100%" style="stop-color:#1565C0;stop-opacity:1" />
    </linearGradient>
    <linearGradient id="iconGradient" x1="0%" y1="0%" x2="100%" y2="100%">
      <stop offset="0%" style="stop-color:#FFFFFF;stop-opacity:1" />
      <stop offset="100%" style="stop-color:#E3F2FD;stop-opacity:1" />
    </linearGradient>
  </defs>
  
  <!-- Background circle -->
  <circle cx="512" cy="512" r="480" fill="url(#bgGradient)" stroke="#0D47A1" stroke-width="8"/>
  
  <!-- Document shape -->
  <rect x="256" y="180" width="480" height="620" rx="24" ry="24" fill="url(#iconGradient)" stroke="#1976D2" stroke-width="4"/>
  
  <!-- Document corner fold -->
  <polygon points="640,180 640,260 720,260" fill="#BBDEFB" stroke="#1976D2" stroke-width="2"/>
  <line x1="640" y1="180" x2="640" y2="260" stroke="#1976D2" stroke-width="2"/>
  <line x1="640" y1="260" x2="720" y2="260" stroke="#1976D2" stroke-width="2"/>
  
  <!-- Job/Gear icon in center -->
  <g transform="translate(512,450) scale(0.8)">
    <!-- Gear/cog shape -->
    <path d="M 0,-60 L 15,-55 L 25,-70 L 40,-65 L 45,-80 L 60,-75 L 70,-85 L 75,-60 L 85,-55 L 80,-40 L 90,-25 L 75,-20 L 70,-5 L 55,-10 L 45,5 L 25,0 L 15,15 L 0,10 L -10,25 L -25,20 L -35,35 L -50,30 L -55,45 L -70,40 L -80,55 L -75,70 L -90,75 L -85,90 L -70,95 L -60,80 L -45,85 L -40,70 L -25,75 L -15,60 L 0,65 Z" 
          fill="url(#iconGradient)" stroke="#1976D2" stroke-width="3"/>
    <!-- Center circle of gear -->
    <circle cx="0" cy="0" r="25" fill="#1976D2"/>
    <!-- Inner circle -->
    <circle cx="0" cy="0" r="12" fill="#FFFFFF"/>
  </g>
  
  <!-- Document lines -->
  <line x1="300" y1="280" x2="600" y2="280" stroke="#1976D2" stroke-width="6" stroke-linecap="round"/>
  <line x1="300" y1="330" x2="550" y2="330" stroke="#1976D2" stroke-width="4" stroke-linecap="round"/>
  <line x1="300" y1="380" x2="580" y2="380" stroke="#1976D2" stroke-width="4" stroke-linecap="round"/>
  
  <!-- Bottom section lines -->
  <line x1="300" y1="580" x2="650" y2="580" stroke="#1976D2" stroke-width="4" stroke-linecap="round"/>
  <line x1="300" y1="630" x2="620" y2="630" stroke="#1976D2" stroke-width="4" stroke-linecap="round"/>
  <line x1="300" y1="680" x2="590" y2="680" stroke="#1976D2" stroke-width="4" stroke-linecap="round"/>
</svg>