<svg width="1024" height="1024" viewBox="0 0 1024 1024" xmlns="http://www.w3.org/2000/svg">
  <defs>
    <!-- Modern gradient -->
    <linearGradient id="primaryGradient" x1="0%" y1="0%" x2="100%" y2="100%">
      <stop offset="0%" style="stop-color:#6366F1"/>
      <stop offset="100%" style="stop-color:#8B5CF6"/>
    </linearGradient>
    
    <!-- Secondary gradient -->
    <linearGradient id="secondaryGradient" x1="0%" y1="0%" x2="100%" y2="100%">
      <stop offset="0%" style="stop-color:#FFFFFF"/>
      <stop offset="100%" style="stop-color:#F8FAFC"/>
    </linearGradient>
    
    <!-- Shadow gradient -->
    <linearGradient id="shadowGradient" x1="0%" y1="0%" x2="100%" y2="100%">
      <stop offset="0%" style="stop-color:#1E293B;stop-opacity:0.1"/>
      <stop offset="100%" style="stop-color:#0F172A;stop-opacity:0.2"/>
    </linearGradient>
  </defs>

  <!-- Background -->
  <rect width="1024" height="1024" rx="200" fill="url(#primaryGradient)"/>
  
  <!-- Shadow layer -->
  <rect x="20" y="20" width="984" height="984" rx="180" fill="url(#shadowGradient)"/>
  
  <!-- Document base -->
  <rect x="200" y="150" width="520" height="680" rx="32" fill="url(#secondaryGradient)" 
        stroke="url(#primaryGradient)" stroke-width="4"/>
  
  <!-- Document corner fold -->
  <path d="M 640 150 L 640 230 L 720 230 Z" fill="#E2E8F0" stroke="url(#primaryGradient)" stroke-width="2"/>
  <path d="M 640 150 L 640 230 L 720 230" stroke="url(#primaryGradient)" stroke-width="2" fill="none"/>
  
  <!-- Modern gear icon in center -->
  <g transform="translate(460, 450)">
    <!-- Outer gear teeth -->
    <circle cx="0" cy="0" r="95" fill="url(#primaryGradient)"/>
    
    <!-- Gear teeth cutouts -->
    <g fill="#FFFFFF">
      <!-- Top -->
      <rect x="-8" y="-105" width="16" height="20" rx="4"/>
      <!-- Top-right -->
      <rect x="68" y="-80" width="20" height="16" rx="4" transform="rotate(45)"/>
      <!-- Right -->
      <rect x="85" y="-8" width="20" height="16" rx="4"/>
      <!-- Bottom-right -->
      <rect x="68" y="68" width="20" height="16" rx="4" transform="rotate(135)"/>
      <!-- Bottom -->
      <rect x="-8" y="85" width="16" height="20" rx="4"/>
      <!-- Bottom-left -->
      <rect x="-80" y="68" width="20" height="16" rx="4" transform="rotate(225)"/>
      <!-- Left -->
      <rect x="-105" y="-8" width="20" height="16" rx="4"/>
      <!-- Top-left -->
      <rect x="-80" y="-80" width="20" height="16" rx="4" transform="rotate(315)"/>
    </g>
    
    <!-- Inner circle -->
    <circle cx="0" cy="0" r="35" fill="#FFFFFF"/>
    <circle cx="0" cy="0" r="20" fill="url(#primaryGradient)"/>
  </g>
  
  <!-- Document lines -->
  <g fill="url(#primaryGradient)">
    <rect x="240" y="250" width="320" height="6" rx="3"/>
    <rect x="240" y="280" width="280" height="4" rx="2"/>
    <rect x="240" y="300" width="300" height="4" rx="2"/>
    
    <!-- Bottom section -->
    <rect x="240" y="580" width="360" height="4" rx="2"/>
    <rect x="240" y="600" width="340" height="4" rx="2"/>
    <rect x="240" y="620" width="320" height="4" rx="2"/>
  </g>
  
  <!-- Subtle highlight -->
  <rect x="200" y="150" width="520" height="100" rx="32" 
        fill="url(#secondaryGradient)" opacity="0.6"/>
</svg>